# xmcd
#
# Track frame offsets: 
#        150
#        11717
#        23574
#        41359
#        53456
#        67405
#        75088
#        88520
#        108573
#        130159
#        142589
#        157620
#
# Disc length: 2241 seconds
#
# Revision: 0
# Processed by: cddbd v1.5.2PL0 Copyright (c) Steve Scherf et al.
# Submitted via: ExactAudioCopy v1.3
#
DISCID=7f08bf0c
DTITLE=The Wheelhouse Rousters - River Folk
DYEAR=2019
DGENRE=Blues
TTITLE0=Listen for the Whistle
TTITLE1=Owensboro
TTITLE2=Water and Stone
TTITLE3=Forever Only Lasts Awhile
TTITLE4=Uglyhead
TTITLE5=Let Them Dogs Run
TTITLE6=Your Smile
TTITLE7=Every Time I Do
TTITLE8=Backwater on the Rise
TTITLE9=Dry Ground Wet Beer
TTITLE10=Rabbit Hole
TTITLE11=Another Day in Paradise
EXTD=
EXTT0=
EXTT1=
EXTT2=
EXTT3=
EXTT4=
EXTT5=
EXTT6=
EXTT7=
EXTT8=
EXTT9=
EXTT10=
EXTT11=
PLAYORDER=
